<?xml version="1.0" encoding="UTF-8" standalone="no"?>
<!-- Created with Inkscape (http://www.inkscape.org/) -->

<svg
   width="90.782349mm"
   height="82.912476mm"
   viewBox="0 0 90.782349 82.912476"
   version="1.1"
   id="svg1"
   xmlns:xlink="http://www.w3.org/1999/xlink"
   xmlns="http://www.w3.org/2000/svg"
   xmlns:svg="http://www.w3.org/2000/svg">
  <defs
     id="defs1">
    <clipPath
       clipPathUnits="userSpaceOnUse"
       id="clipPath3">
      <use
         x="0"
         y="0"
         xlink:href="#g2"
         id="use3" />
    </clipPath>
    <filter
       style="color-interpolation-filters:sRGB"
       id="filter3"
       x="-0.096851428"
       y="-0.060746752"
       width="1.1937029"
       height="1.1214935">
      <feGaussianBlur
         stdDeviation="4.4832175"
         id="feGaussianBlur3" />
    </filter>
  </defs>
  <g
     id="layer1"
     transform="translate(-25.92188,-87.566843)">
    <path
       id="path1"
       style="fill:#ffaaaa;stroke-width:3.6166"
       d="m 108.78215,108.0043 c 11.74279,14.7451 10.54659,41.45549 -4.36163,53.80931 -14.695985,12.17793 -43.866986,10.66063 -60.667409,0.79208 C 30.279109,154.69108 25.696482,137.13574 25.93034,122.92118 26.120828,111.34275 29.567902,95.939322 41.505194,90.976557 62.59484,82.208833 95.422317,91.228761 108.78215,108.0043 Z" />
    <g
       id="g3"
       clip-path="url(#clipPath3)"
       transform="matrix(0.45513878,0,0,0.3988995,-2.9063716,83.869727)">
      <g
         id="g2">
        <path
           d="m 174.92362,79.336606 c -3.27014,-50.020139 -43.80156,-38.446157 -45.98326,-7.799893 -2.12137,29.798827 47.47038,30.546887 45.98326,7.799893 z m -22.5181,32.662534 c -26.25536,-2.52052 -17.50981,57.41831 -14.51371,77.78574 1.76912,12.02646 -27.48942,12.29938 -29.74179,0.35399 -4.04583,-21.45694 -1.37879,-66.17301 3.05718,-93.727057 4.43596,-27.554051 -1.29252,-54.729052 19.05085,-68.911074 16.36749,-11.410309 40.4959,-4.855537 58.43868,12.951048 5.21171,5.172156 8.90741,11.911431 11.2069,19.323448 4.0874,13.175051 -9.61362,43.589385 -20.47696,47.958715 0,0 46.08976,69.51008 36.51633,87.22338 -3.85503,7.1328 -17.48147,-0.48756 -24.33183,-1.29819 -13.89473,-1.6442 -22.71745,-80.07713 -39.20565,-81.66 z"
           id="text2"
           style="font-weight:bold;font-stretch:semi-condensed;font-size:84.9922px;font-family:'DejaVu Sans';-inkscape-font-specification:'DejaVu Sans Bold Semi-Condensed';mix-blend-mode:darken;fill:#7d7d7d;fill-opacity:1;stroke-width:108.256;filter:url(#filter3)"
           aria-label="RVD" />
        <path
           d="M 181.27366,79.336606 C 178.00352,29.316467 137.4721,40.890449 135.2904,71.536713 c -2.12137,29.798827 47.47038,30.546887 45.98326,7.799893 z m -22.5181,32.662534 c -26.25536,-2.52052 -17.50981,57.41831 -14.51371,77.78574 1.76912,12.02646 -27.48942,12.29938 -29.74179,0.35399 -4.04583,-21.45694 -1.37879,-66.17301 3.05718,-93.727057 4.43596,-27.554051 -1.29252,-54.729052 19.05085,-68.911074 16.36749,-11.410309 40.4959,-4.855537 58.43868,12.951048 5.21171,5.172156 8.90741,11.911431 11.2069,19.323448 4.0874,13.175051 -9.61362,43.589385 -20.47696,47.958715 0,0 46.08976,69.51008 36.51633,87.22338 -3.85503,7.1328 -17.48147,-0.48756 -24.33183,-1.29819 -13.89473,-1.6442 -22.71745,-80.07713 -39.20565,-81.66 z"
           id="path3"
           style="font-weight:bold;font-stretch:semi-condensed;font-size:84.9922px;font-family:'DejaVu Sans';-inkscape-font-specification:'DejaVu Sans Bold Semi-Condensed';fill:#f9f9f9;stroke-width:108.256"
           aria-label="RVD" />
      </g>
    </g>
  </g>
</svg>
